<svg width="98" height="61" viewBox="0 0 98 61" fill="none" xmlns="http://www.w3.org/2000/svg">
<rect x="0.135254" y="0.563965" width="97.5022" height="60" rx="10" fill="#F8F8F8"/>
<g clip-path="url(#clip0_703_777)">
<path d="M55.4409 28.6106H53.8082C53.7746 28.477 53.7496 28.322 53.733 28.1461C53.6997 27.8037 53.6997 27.4588 53.733 27.1164C53.7496 26.9408 53.7746 26.786 53.8082 26.6516H57.8772V39.5363C57.6735 39.5717 57.4681 39.5967 57.2618 39.6112C57.057 39.6269 56.8516 39.6352 56.6461 39.6361C56.4493 39.6348 56.2526 39.6265 56.0563 39.6112C55.8502 39.5966 55.6449 39.5714 55.4413 39.5359V28.6101V28.6104L55.4409 28.6106ZM69.606 31.8509C69.606 31.3819 69.5431 30.9341 69.4179 30.5068C69.2921 30.0801 69.1074 29.7077 68.8653 29.3893C68.622 29.0715 68.3125 28.8159 67.9357 28.6235C67.5591 28.4309 67.111 28.3345 66.592 28.3345C65.5707 28.3345 64.7878 28.6447 64.2437 29.2639C63.6995 29.8833 63.369 30.7456 63.2516 31.8509H69.6061H69.606ZM63.2266 33.7093C63.2601 35.1158 63.6243 36.1457 64.3192 36.7984C65.0138 37.4513 66.0395 37.7783 67.3958 37.7783C68.5843 37.7783 69.7146 37.5687 70.7862 37.1501C70.9198 37.4013 71.0286 37.7069 71.1124 38.0669C71.1947 38.4174 71.2451 38.7746 71.2631 39.1342C70.7109 39.3692 70.1034 39.5443 69.4425 39.6618C68.7807 39.7786 68.0482 39.8376 67.245 39.8376C66.0725 39.8376 65.0677 39.6738 64.231 39.3476C63.3936 39.0208 62.703 38.5603 62.1588 37.9662C61.6147 37.3719 61.2169 36.6686 60.9657 35.8563C60.7147 35.0445 60.5888 34.1528 60.5888 33.1816C60.5888 32.2273 60.7101 31.3355 60.953 30.5065C61.1954 29.6782 61.5687 28.9581 62.0705 28.3469C62.573 27.7355 63.205 27.2501 63.9669 26.8901C64.7284 26.5301 65.6283 26.3499 66.6669 26.3499C67.5542 26.3499 68.3328 26.5008 69.0027 26.8021C69.6721 27.1034 70.2332 27.5179 70.6855 28.0453C71.1374 28.5729 71.4807 29.2008 71.7152 29.9288C71.9494 30.6574 72.067 31.4484 72.067 32.3026C72.067 32.5371 72.0581 32.7839 72.0415 33.0433C72.0278 33.2653 72.0111 33.4872 71.9915 33.7088H63.2261L63.2263 33.7092L63.2266 33.7093ZM74.8061 26.6516C74.9809 26.6199 75.1568 26.5948 75.3335 26.5764C75.5005 26.56 75.6767 26.5515 75.8609 26.5515C76.0451 26.5515 76.229 26.56 76.4135 26.5764C76.5976 26.5934 76.7651 26.6186 76.9159 26.6516C76.9657 26.9029 77.016 27.2339 77.066 27.6437C77.1162 28.054 77.1418 28.4012 77.1418 28.686C77.4932 28.1169 77.9579 27.6226 78.5354 27.2039C79.1131 26.7856 79.8539 26.576 80.758 26.576C80.8919 26.576 81.03 26.5805 81.1724 26.5888C81.2942 26.5954 81.416 26.6077 81.5366 26.6262C81.5698 26.7771 81.5955 26.9364 81.612 27.1036C81.6285 27.2708 81.6369 27.4468 81.6369 27.6308C81.6369 27.8319 81.6245 28.0414 81.5994 28.2586C81.5753 28.4686 81.546 28.6779 81.5117 28.8864C81.376 28.853 81.2368 28.8361 81.097 28.8362H80.7577C80.3058 28.8362 79.8745 28.8991 79.4643 29.0245C79.0538 29.1502 78.6856 29.3722 78.3592 29.69C78.033 30.0083 77.7732 30.4438 77.581 30.9964C77.3881 31.5489 77.292 32.2605 77.292 33.1311V39.5359C77.0883 39.5712 76.8829 39.5965 76.6766 39.6111C76.4508 39.6278 76.2456 39.636 76.0615 39.636C75.8561 39.6351 75.6508 39.6268 75.446 39.6111C75.2315 39.5955 75.0178 39.5704 74.8054 39.536V26.6517L74.8061 26.6516ZM57.1789 19.7718C57.1789 20.0724 57.1247 20.3705 57.0187 20.6519C56.7373 20.7578 56.4391 20.8121 56.1384 20.8122H56.1347C55.834 20.8122 55.5357 20.758 55.2543 20.652C55.1482 20.3706 55.0938 20.0724 55.0939 19.7716V19.7677C55.0939 19.4579 55.1507 19.1612 55.2537 18.8874C55.5351 18.7812 55.8335 18.7269 56.1343 18.7271H56.1377C56.4477 18.7271 56.7442 18.784 57.018 18.8874C57.1241 19.1687 57.1784 19.467 57.1783 19.7677V19.7716H57.1787L57.1789 19.7718ZM60.2478 19.0748H57.8143L59.5349 17.3541C59.2643 16.9741 58.9322 16.642 58.5521 16.3715L56.8312 18.0923V15.6586C56.6024 15.6201 56.3708 15.6007 56.1387 15.6006H56.1343C55.8982 15.6006 55.667 15.6208 55.4417 15.6586V18.0923L53.7204 16.3714C53.5308 16.5063 53.3529 16.6569 53.1885 16.8215L53.1877 16.8223C53.0233 16.9869 52.8729 17.1648 52.738 17.3542L54.4593 19.0748H52.0252C52.0252 19.0748 51.9673 19.532 51.9673 19.7684V19.7712C51.9673 20.0076 51.9874 20.2392 52.0253 20.4646H54.4594L52.7379 22.1851C53.0086 22.5651 53.3408 22.8972 53.7208 23.1679L55.4418 21.4473V23.8811C55.6669 23.9188 55.8977 23.9388 56.1335 23.939H56.1394C56.3712 23.9388 56.6025 23.9194 56.8311 23.8811V21.4473L58.5522 23.1683C58.7418 23.0333 58.9199 22.8827 59.0845 22.7182H59.0849C59.2492 22.5535 59.3996 22.3755 59.5345 22.1859L57.8139 20.4648H60.248C60.2857 20.2395 60.3056 20.0086 60.3056 19.7728V19.7668C60.3056 19.5349 60.2862 19.3037 60.248 19.0751V19.0748H60.2478ZM16.1353 39.1848L22.9166 28.6358H16.9388C16.8888 28.3345 16.8638 27.9999 16.8638 27.6314C16.8638 27.2799 16.8892 26.953 16.9394 26.6515H26.6088L26.7346 26.9786L19.9031 37.5522H26.3074C26.3575 37.8872 26.3828 38.2301 26.3828 38.5816C26.3828 38.917 26.3577 39.235 26.3075 39.5363H16.261L16.1353 39.1844V39.1848ZM35.7002 33.4831C35.4491 33.4499 35.1309 33.4168 34.7459 33.3829C34.3607 33.3497 34.0343 33.3327 33.7667 33.3327C32.7284 33.3327 31.9373 33.5253 31.3935 33.9104C30.8489 34.2958 30.5773 34.8815 30.5773 35.6685C30.5773 36.1708 30.669 36.5643 30.8533 36.8488C31.0373 37.1339 31.2677 37.3511 31.544 37.5019C31.8204 37.6526 32.1256 37.7448 32.4604 37.7783C32.7951 37.8117 33.1134 37.8284 33.4147 37.8284C33.7999 37.8284 34.1975 37.8074 34.6078 37.7655C35.0178 37.7239 35.382 37.6609 35.7004 37.5772V33.4831H35.7002ZM35.7002 31.0472C35.7002 30.0589 35.4491 29.3724 34.947 28.9873C34.4444 28.6021 33.7162 28.4095 32.7618 28.4095C32.1753 28.4095 31.6273 28.4559 31.1168 28.5479C30.6116 28.6386 30.1124 28.76 29.622 28.9117C29.3037 28.3591 29.1452 27.6982 29.1452 26.9275C29.7137 26.7436 30.3415 26.6013 31.0284 26.5008C31.7148 26.4002 32.3761 26.3499 33.0127 26.3499C34.6869 26.3499 35.9594 26.7311 36.8301 27.4929C37.7005 28.2553 38.1363 29.4733 38.1363 31.1474V39.2097C37.5499 39.3436 36.8385 39.4816 36.0014 39.624C35.155 39.767 34.298 39.8384 33.4396 39.8376C32.6193 39.8376 31.878 39.7625 31.217 39.6117C30.5554 39.4607 29.9945 39.2184 29.5341 38.8831C29.0732 38.5485 28.718 38.1214 28.4664 37.6025C28.2154 37.0833 28.0898 36.4556 28.0898 35.7187C28.0898 34.9989 28.2363 34.3667 28.5293 33.8222C28.8173 33.2843 29.2256 32.8202 29.7225 32.4661C30.2248 32.1066 30.8024 31.8383 31.4554 31.6628C32.1086 31.4868 32.7948 31.3988 33.5148 31.3988C34.0506 31.3988 34.4901 31.4116 34.8335 31.4368C35.1765 31.4617 35.4655 31.491 35.7 31.5246V31.0473L35.7002 31.0472ZM43.3352 37.426C43.6522 37.5432 43.9805 37.6274 44.3148 37.6773C44.6497 37.7277 45.0846 37.7528 45.6209 37.7528C46.2236 37.7528 46.7759 37.6567 47.2781 37.4642C47.7807 37.272 48.2117 36.9745 48.5717 36.5724C48.9317 36.1708 49.2162 35.6646 49.4256 35.0528C49.6348 34.442 49.7397 33.7181 49.7397 32.8805C49.7397 31.5411 49.4924 30.4778 48.9987 29.6908C48.5045 28.9039 47.6966 28.5104 46.5752 28.5104C46.1566 28.5104 45.7544 28.5856 45.3699 28.7365C44.9842 28.8872 44.6413 29.1133 44.3398 29.4146C44.0385 29.7159 43.7958 30.0971 43.6117 30.5575C43.427 31.0184 43.3353 31.5662 43.3353 32.2026V37.4264V37.4262L43.3352 37.426ZM40.8487 26.6513C41.019 26.6178 41.1906 26.5928 41.3636 26.5761C41.5431 26.5595 41.7234 26.5512 41.9037 26.5512C42.0706 26.5512 42.2463 26.5599 42.4308 26.5761C42.6148 26.5932 42.7906 26.6184 42.9583 26.6515C42.9748 26.6855 42.996 26.7897 43.0211 26.9656C43.046 27.1415 43.0712 27.3298 43.0965 27.5305C43.1216 27.7316 43.1467 27.9246 43.1718 28.1082C43.197 28.2927 43.2095 28.4099 43.2095 28.4601C43.3766 28.1925 43.5777 27.9327 43.8122 27.6815C44.0466 27.4303 44.3274 27.2043 44.6539 27.0036C44.9803 26.8025 45.3484 26.6436 45.7589 26.5262C46.1689 26.4091 46.6252 26.35 47.1276 26.35C47.8809 26.35 48.5801 26.4758 49.225 26.727C49.8693 26.9786 50.4215 27.3673 50.8822 27.8948C51.3424 28.4224 51.7023 29.0922 51.9621 29.904C52.2215 30.7168 52.3511 31.6752 52.3511 32.7801C52.3511 34.9902 51.7525 36.7194 50.5551 37.9666C49.3577 39.2141 47.6629 39.8376 45.4695 39.8376C45.101 39.8376 44.7245 39.8124 44.3393 39.7622C43.9539 39.7118 43.6193 39.6447 43.3345 39.5614V45.4637C43.1224 45.4982 42.9088 45.5233 42.6944 45.539C42.4682 45.5554 42.2629 45.5639 42.0787 45.5639C41.8734 45.563 41.6682 45.5547 41.4635 45.539C41.2573 45.5244 41.052 45.4993 40.8483 45.4637V26.6515L40.8487 26.6513Z" fill="#FF4A00"/>
</g>
<defs>
<clipPath id="clip0_703_777">
<rect width="65.5022" height="30" fill="white" transform="translate(16.1353 15.564)"/>
</clipPath>
</defs>
</svg>
