<svg width="163" height="61" viewBox="0 0 163 61" fill="none" xmlns="http://www.w3.org/2000/svg">
<rect x="0.0112305" y="0.563965" width="162.316" height="60" rx="10" fill="#F8F8F8"/>
<g clip-path="url(#clip0_703_826)">
<path fill-rule="evenodd" clip-rule="evenodd" d="M67.4329 37.6201C62.6172 41.1741 55.6354 43.0641 49.6229 43.0641C41.1971 43.0641 33.6091 39.9493 27.8669 34.7645C27.4165 34.3569 27.8181 33.801 28.36 34.1163C34.5548 37.7212 42.2166 39.8925 50.1286 39.8925C55.4663 39.8925 61.3341 38.7843 66.733 36.4942C67.5473 36.1495 68.2302 37.0309 67.4329 37.6201Z" fill="#F79C34"/>
<path fill-rule="evenodd" clip-rule="evenodd" d="M69.4376 35.3316C68.8212 34.5431 65.3661 34.958 63.8135 35.144C63.3432 35.2009 63.2701 34.7897 63.6939 34.4922C66.4506 32.5557 70.9681 33.1145 71.493 33.7635C72.0216 34.4168 71.3534 38.9461 68.771 41.107C68.373 41.4393 67.9951 41.2621 68.1715 40.8235C68.7533 39.3714 70.0541 36.1215 69.4376 35.3316Z" fill="#F79C34"/>
<path fill-rule="evenodd" clip-rule="evenodd" d="M63.9225 20.8131V18.932C63.924 18.6456 64.1396 18.4551 64.3994 18.4558L72.8319 18.4551C73.1014 18.4551 73.3185 18.6507 73.3185 18.9298V20.5429C73.3155 20.8138 73.0874 21.1667 72.6835 21.7271L68.3152 27.964C69.9364 27.9263 71.6514 28.1692 73.125 28.9968C73.4572 29.1836 73.5466 29.4605 73.5724 29.7314V31.7388C73.5724 32.0156 73.2697 32.3353 72.9508 32.1692C70.3558 30.8093 66.9118 30.6609 64.0414 32.1854C63.7483 32.3419 63.4419 32.0259 63.4419 31.7491V29.8407C63.4419 29.5358 63.4478 29.0131 63.7557 28.548L68.8158 21.2878L64.4098 21.2871C64.1403 21.2871 63.924 21.0951 63.9225 20.8131Z" fill="#333E47"/>
<path fill-rule="evenodd" clip-rule="evenodd" d="M33.1634 32.5644H30.5979C30.3535 32.5488 30.1586 32.3658 30.1387 32.131L30.1409 18.964C30.1409 18.7011 30.3624 18.4907 30.6363 18.4907L33.0253 18.49C33.2748 18.5025 33.4756 18.6915 33.4912 18.9322V20.6509H33.5399C34.1622 18.9883 35.3353 18.2124 36.916 18.2124C38.5202 18.2124 39.5265 18.9883 40.2448 20.6509C40.8672 18.9883 42.2802 18.2124 43.7885 18.2124C44.8664 18.2124 46.0395 18.6561 46.7578 19.6535C47.5722 20.7624 47.4053 22.3689 47.4053 23.7819L47.4024 32.0911C47.4024 32.3532 47.1816 32.5644 46.9077 32.5644H44.3459C44.0875 32.5481 43.8852 32.3443 43.8852 32.0919L43.8845 25.1115C43.8845 24.5578 43.9325 23.1728 43.8122 22.6464C43.6209 21.759 43.0466 21.5095 42.3046 21.5095C41.6815 21.5095 41.0348 21.9252 40.7712 22.5896C40.5077 23.2555 40.532 24.3629 40.532 25.1115V32.0911C40.532 32.3532 40.3105 32.5644 40.0374 32.5644H37.4749C37.2172 32.5481 37.0142 32.3443 37.0142 32.0919L37.0112 25.1115C37.0112 23.6431 37.2512 21.4829 35.4313 21.4829C33.5871 21.4829 33.6595 23.5877 33.6595 25.1115L33.658 32.0911C33.658 32.3532 33.4365 32.5644 33.1634 32.5644Z" fill="#333E47"/>
<path fill-rule="evenodd" clip-rule="evenodd" d="M80.6008 20.9004C78.7094 20.9004 78.5898 23.4763 78.5898 25.0835C78.5898 26.6907 78.5662 30.1266 80.5779 30.1266C82.5654 30.1266 82.6613 27.3559 82.6613 25.666C82.6613 24.5578 82.6126 23.2275 82.2774 22.1747C81.9902 21.26 81.4151 20.9004 80.6008 20.9004ZM80.5779 18.2124C84.3852 18.2124 86.4442 21.4829 86.4442 25.6386C86.4442 29.6548 84.1696 32.8419 80.5779 32.8419C76.8416 32.8419 74.8062 29.5721 74.8062 25.4999C74.8062 21.3988 76.8652 18.2124 80.5779 18.2124Z" fill="#333E47"/>
<path fill-rule="evenodd" clip-rule="evenodd" d="M91.3828 32.5644H88.8262C88.57 32.5481 88.3662 32.3443 88.3662 32.0919L88.3618 18.9204C88.384 18.679 88.5966 18.4907 88.855 18.4907L91.2344 18.49C91.4589 18.5018 91.6434 18.6539 91.6907 18.8584V20.8724H91.7387C92.4577 19.071 93.4625 18.2124 95.2344 18.2124C96.3838 18.2124 97.5097 18.628 98.228 19.7642C98.8984 20.817 98.8984 22.5896 98.8984 23.8646V32.1502C98.8703 32.3835 98.6607 32.5644 98.4067 32.5644H95.8353C95.5976 32.5496 95.4064 32.3746 95.3783 32.1502V25.0015C95.3783 23.5604 95.5467 21.4541 93.7741 21.4541C93.1517 21.4541 92.5766 21.8698 92.2894 22.5069C91.9299 23.3109 91.8819 24.1141 91.8819 25.0015V32.0911C91.8775 32.3532 91.656 32.5644 91.3828 32.5644Z" fill="#333E47"/>
<path fill-rule="evenodd" clip-rule="evenodd" d="M59.7859 32.5316C59.6169 32.6837 59.3725 32.6941 59.1805 32.5914C58.3286 31.8834 58.1758 31.5564 57.7099 30.8816C56.302 32.3161 55.3046 32.7465 53.4804 32.7465C51.3209 32.7465 49.6406 31.4132 49.6406 28.748C49.6406 26.6654 50.7694 25.2494 52.3767 24.5554C53.7683 23.9441 55.7121 23.8334 57.2005 23.6665V23.3336C57.2005 22.7215 57.2485 22.001 56.8882 21.4731C56.5759 21.0006 55.9764 20.8065 55.4486 20.8065C54.4696 20.8065 53.6007 21.3077 53.3866 22.3465C53.3416 22.5776 53.1732 22.8072 52.9414 22.819L50.4542 22.5495C50.2445 22.5015 50.0112 22.3332 50.071 22.0128C50.6358 19.0383 53.2921 18.111 55.7062 18.0859H55.8967C57.1326 18.1014 58.711 18.4403 59.6722 19.3624C60.9206 20.5289 60.7996 22.0837 60.7996 23.778V27.7742C60.7996 28.9769 61.2994 29.504 61.7682 30.1515C61.9328 30.3855 61.969 30.6623 61.76 30.8336C61.2359 31.2729 60.3049 32.0813 59.7933 32.5376L59.7859 32.5316ZM57.2005 26.277C57.2005 27.2766 57.2241 28.1094 56.7206 28.9983C56.3124 29.7196 55.6642 30.164 54.9444 30.164C53.961 30.164 53.3851 29.4147 53.3851 28.3036C53.3851 26.1183 55.3445 25.7211 57.2005 25.7211V26.277Z" fill="#333E47"/>
<path fill-rule="evenodd" clip-rule="evenodd" d="M26.1573 32.5316C25.9875 32.6837 25.7424 32.6941 25.5511 32.5914C24.6984 31.8834 24.5456 31.5564 24.0805 30.8816C22.6719 32.3161 21.6752 32.7465 19.851 32.7465C17.6915 32.7465 16.0112 31.4132 16.0112 28.748C16.0112 26.6654 17.1386 25.2494 18.7473 24.5554C20.1389 23.9441 22.0828 23.8334 23.5704 23.6665V23.3336C23.5704 22.7215 23.6191 22.001 23.2588 21.4731C22.9465 21.0006 22.3463 20.8065 21.8192 20.8065C20.8402 20.8065 19.9698 21.3077 19.7572 22.3465C19.7129 22.5776 19.5438 22.8072 19.3113 22.819L16.8248 22.5495C16.6144 22.5015 16.3811 22.3332 16.4416 22.0128C17.0049 19.0383 19.662 18.111 22.0768 18.0859H22.2673C23.5032 18.1014 25.0816 18.4403 26.0428 19.3624C27.2905 20.5289 27.1702 22.0837 27.1702 23.778V27.7742C27.1702 28.9769 27.67 29.504 28.1388 30.1515C28.3019 30.3855 28.3396 30.6623 28.1307 30.8336C27.6065 31.2729 26.6748 32.0813 26.1632 32.5376L26.1573 32.5316ZM23.5704 26.277C23.5704 27.2766 23.5947 28.1094 23.0905 28.9983C22.683 29.7196 22.0348 30.164 21.3142 30.164C20.3308 30.164 19.755 29.4147 19.755 28.3036C19.755 26.1183 21.7151 25.7211 23.5704 25.7211V26.277Z" fill="#333E47"/>
<path fill-rule="evenodd" clip-rule="evenodd" d="M133.966 37.2876C133.966 36.9539 133.966 36.6542 133.966 36.3205C133.966 36.0451 134.102 35.8554 134.389 35.8724C134.925 35.9484 135.683 36.0245 136.221 35.9137C136.924 35.7675 137.428 35.2692 137.726 34.5863C138.147 33.6251 138.425 32.8499 138.601 32.3412L133.264 19.1203C133.174 18.8959 133.147 18.4795 133.595 18.4795H135.461C135.817 18.4795 135.961 18.7054 136.041 18.9269L139.91 29.6657L143.604 18.9269C143.679 18.7069 143.83 18.4795 144.183 18.4795H145.943C146.388 18.4795 146.363 18.8951 146.274 19.1203L140.98 32.7539C140.295 34.5686 139.382 37.4589 137.327 37.9609C136.296 38.2304 134.996 38.1329 134.233 37.8133C134.04 37.7166 133.966 37.4582 133.966 37.2876Z" fill="#333E47"/>
<path fill-rule="evenodd" clip-rule="evenodd" d="M131.478 31.7589C131.478 32.0047 131.277 32.2062 131.029 32.2062H129.714C129.429 32.2062 129.235 32.001 129.199 31.7589L129.067 30.8633C128.462 31.375 127.72 31.8246 126.916 32.1376C125.368 32.7385 123.585 32.8382 122.073 31.9095C120.979 31.2384 120.399 29.9265 120.399 28.5732C120.399 27.5264 120.722 26.4884 121.437 25.7346C122.392 24.7047 123.775 24.199 125.446 24.199C126.455 24.199 127.899 24.3178 128.95 24.6611V22.859C128.95 21.0266 128.178 20.2337 126.144 20.2337C124.589 20.2337 123.4 20.4685 121.745 20.9831C121.48 20.9919 121.325 20.7904 121.325 20.5445V19.5169C121.325 19.2703 121.535 19.0318 121.763 18.9595C122.945 18.4442 124.62 18.123 126.4 18.064C128.72 18.064 131.478 18.5874 131.478 22.1562V31.7589ZM128.95 29.1277V26.4086C128.067 26.1672 126.606 26.0668 126.04 26.0668C125.147 26.0668 124.169 26.2779 123.658 26.828C123.276 27.2311 123.103 27.8099 123.103 28.3695C123.103 29.093 123.353 29.8187 123.938 30.1775C124.617 30.6389 125.671 30.5828 126.661 30.3015C127.613 30.0313 128.506 29.5536 128.95 29.1277Z" fill="#333E47"/>
<path fill-rule="evenodd" clip-rule="evenodd" d="M112.08 20.2745C114.999 20.2745 115.794 22.5698 115.794 25.198C115.81 26.9699 115.485 28.5498 114.567 29.4542C113.88 30.1312 113.113 30.3157 111.959 30.3157C110.931 30.3157 109.579 29.7797 108.569 29.0333V21.5185C109.621 20.7108 110.962 20.2745 112.08 20.2745ZM108.122 37.7597H106.36C106.113 37.7597 105.912 37.5581 105.912 37.3123C105.912 31.192 105.912 25.0711 105.912 18.9508C105.912 18.705 106.113 18.5034 106.36 18.5034H107.709C107.992 18.5034 108.186 18.7087 108.222 18.9508L108.364 19.9128C109.627 18.7913 111.254 18.0723 112.803 18.0723C117.144 18.0723 118.571 21.6484 118.571 25.3671C118.571 29.3456 116.388 32.5423 112.696 32.5423C111.141 32.5423 109.687 31.9687 108.569 30.972V37.3123C108.569 37.5581 108.368 37.7597 108.122 37.7597Z" fill="#333E47"/>
</g>
<defs>
<clipPath id="clip0_703_826">
<rect width="130.316" height="25" fill="white" transform="translate(16.0112 18.064)"/>
</clipPath>
</defs>
</svg>
