<svg width="153" height="61" viewBox="0 0 153 61" fill="none" xmlns="http://www.w3.org/2000/svg">
<rect x="0.637207" y="0.563965" width="151.725" height="60" rx="10" fill="#F8F8F8"/>
<g clip-path="url(#clip0_703_780)">
<path d="M41.2591 33.5892C39.5896 40.2856 32.8073 44.361 26.1101 42.6911C19.4157 41.0216 15.3403 34.2388 17.0106 27.5429C18.6793 20.8457 25.4617 16.77 32.1569 18.4395C38.8537 20.109 42.9286 26.8925 41.2591 33.5892Z" fill="#F7931A"/>
<path d="M34.6459 28.7845C34.8947 27.1212 33.6283 26.2271 31.8967 25.6306L32.4584 23.3775L31.087 23.0357L30.5401 25.2294C30.1796 25.1396 29.8093 25.0548 29.4413 24.9709L29.9921 22.7627L28.6214 22.4209L28.0593 24.6732C27.7609 24.6052 27.4679 24.5381 27.1835 24.4674L27.1851 24.4603L25.2937 23.9881L24.9289 25.4529C24.9289 25.4529 25.9464 25.6861 25.925 25.7005C26.4804 25.8392 26.5808 26.2068 26.564 26.4982L25.9242 29.0649C25.9624 29.0747 26.0121 29.0888 26.0668 29.1106C26.021 29.0993 25.9722 29.0868 25.9218 29.0747L25.025 32.6704C24.957 32.8391 24.7847 33.0922 24.3965 32.9961C24.4101 33.016 23.3996 32.7473 23.3996 32.7473L22.7188 34.3172L24.5035 34.7621C24.8355 34.8453 25.1609 34.9324 25.4812 35.0144L24.9136 37.2933L26.2835 37.6351L26.8456 35.3805C27.2199 35.482 27.5831 35.5758 27.9386 35.6641L27.3784 37.9082L28.7499 38.25L29.3175 35.9754C31.6561 36.4179 33.4147 36.2394 34.1549 34.1242C34.7514 32.4211 34.1252 31.4387 32.8948 30.7981C33.7908 30.5915 34.4658 30.002 34.6459 28.7845ZM31.5124 33.1785C31.0885 34.8816 28.221 33.961 27.2913 33.7301L28.0444 30.711C28.9741 30.943 31.9553 31.4024 31.5124 33.1785ZM31.9366 28.7599C31.5499 30.3091 29.1632 29.522 28.389 29.329L29.0718 26.5908C29.846 26.7837 32.3393 27.1439 31.9366 28.7599Z" fill="white"/>
<path d="M53.2667 25.6286C54.2804 25.6286 55.1561 25.8102 55.8921 26.1669C56.6315 26.527 57.2417 27.0122 57.7311 27.6223C58.2139 28.2356 58.5733 28.9524 58.8053 29.7738C59.0358 30.5977 59.1514 31.4832 59.1514 32.4312C59.1514 33.8874 58.8846 35.2632 58.3459 36.5601C57.8073 37.8589 57.0764 38.9854 56.1467 39.9463C55.2179 40.9061 54.121 41.6627 52.8562 42.2217C51.5933 42.7811 50.2203 43.0607 48.7461 43.0607C48.5555 43.0607 48.2203 43.0553 47.7469 43.0455C47.2734 43.0357 46.7293 42.9869 46.12 42.9045C45.5067 42.8189 44.8583 42.6924 44.1735 42.5229C43.4891 42.3565 42.8392 42.1233 42.2271 41.8272L47.7004 18.8291L52.6027 18.0693L50.6429 26.2305C51.0625 26.0415 51.4851 25.895 51.907 25.7884C52.3292 25.6833 52.7824 25.6286 53.2667 25.6286ZM49.1547 39.1717C49.8929 39.1717 50.5886 38.9901 51.2421 38.6335C51.8976 38.2764 52.4632 37.7944 52.937 37.194C53.4109 36.5909 53.7858 35.9116 54.0593 35.1527C54.3327 34.3937 54.471 33.6019 54.471 32.7781C54.471 31.766 54.3019 30.9766 53.9648 30.4059C53.6276 29.8375 53.0038 29.5516 52.098 29.5516C51.8011 29.5516 51.4187 29.6082 50.9445 29.7094C50.4687 29.8168 50.0429 30.0399 49.6613 30.3754L47.5746 39.0424C47.7004 39.0647 47.8117 39.0858 47.9066 39.1057C47.9996 39.1272 48.1023 39.1424 48.2047 39.153C48.3129 39.1651 48.4367 39.1714 48.5863 39.1714C48.7359 39.1714 48.923 39.1717 49.1547 39.1717Z" fill="#4D4D4D"/>
<path d="M64.2351 42.6205H59.5527L63.507 25.9813H68.2214L64.2351 42.6205ZM66.5136 23.954C65.8601 23.954 65.2675 23.7595 64.7417 23.3696C64.2116 22.9822 63.9492 22.3857 63.9492 21.5818C63.9492 21.1396 64.039 20.7248 64.2171 20.3334C64.398 19.9427 64.6343 19.6064 64.9304 19.3205C65.2261 19.0369 65.5687 18.8103 65.9577 18.6396C66.3491 18.4717 66.7655 18.3877 67.2093 18.3877C67.8624 18.3877 68.4518 18.5822 68.9795 18.9721C69.5053 19.3639 69.7698 19.9603 69.7698 20.7599C69.7698 21.2037 69.6803 21.6201 69.5006 22.0107C69.3221 22.4013 69.0858 22.7376 68.7897 23.0236C68.4963 23.3075 68.1506 23.5333 67.7624 23.7025C67.3706 23.8732 66.9557 23.954 66.5136 23.954Z" fill="#4D4D4D"/>
<path d="M72.3248 21.8354L77.229 21.0757L76.0247 25.9803H81.277L80.3285 29.8388H75.1079L73.7173 35.6591C73.5892 36.1442 73.5165 36.5973 73.4962 37.0184C73.4732 37.4414 73.5267 37.8047 73.6533 38.1106C73.779 38.4172 74.0052 38.6535 74.3333 38.8207C74.6599 38.9906 75.1275 39.0762 75.7407 39.0762C76.2458 39.0762 76.738 39.0281 77.2138 38.9328C77.6868 38.8391 78.1661 38.7086 78.6512 38.5379L79.0004 42.1457C78.3676 42.3777 77.6825 42.5773 76.9442 42.7453C76.2048 42.9156 75.3294 42.9976 74.3177 42.9976C72.863 42.9976 71.7353 42.7816 70.9318 42.3515C70.1295 41.9183 69.5623 41.3265 69.2229 40.5773C68.8881 39.8309 68.7385 38.9703 68.7803 38.0008C68.8236 37.029 68.9701 36.0075 69.2229 34.9317L72.3248 21.8354Z" fill="#4D4D4D"/>
<path d="M81.0708 35.9758C81.0708 34.5426 81.3028 33.1911 81.7665 31.9259C82.2294 30.6595 82.8962 29.5521 83.7614 28.6017C84.6235 27.656 85.6739 26.9068 86.9102 26.3568C88.1406 25.81 89.5183 25.5342 91.0367 25.5342C91.987 25.5342 92.8359 25.624 93.5827 25.8041C94.3327 25.9857 95.0112 26.2205 95.6249 26.515L94.0101 30.1868C93.5882 30.0158 93.1503 29.865 92.6976 29.7283C92.2445 29.5888 91.6913 29.5216 91.0371 29.5216C89.4742 29.5216 88.2387 30.0603 87.3191 31.1341C86.4031 32.2087 85.9418 33.6551 85.9418 35.4696C85.9418 36.5449 86.1739 37.4145 86.6395 38.0797C87.1027 38.7449 87.9586 39.0758 89.2011 39.0758C89.8144 39.0758 90.4062 39.0117 90.973 38.8867C91.5441 38.7602 92.0484 38.6008 92.4925 38.4125L92.8421 42.1765C92.2499 42.4062 91.5968 42.6136 90.8804 42.7952C90.1625 42.9706 89.3078 43.0616 88.3168 43.0616C87.0086 43.0616 85.9012 42.8702 84.9953 42.4933C84.0891 42.1105 83.3403 41.6023 82.7505 40.9585C82.1575 40.3132 81.7317 39.5597 81.4685 38.6949C81.2052 37.8309 81.0708 36.9231 81.0708 35.9758Z" fill="#4D4D4D"/>
<path d="M101.872 43.0616C100.754 43.0616 99.7833 42.8913 98.9599 42.5542C98.1388 42.2171 97.4587 41.7441 96.9209 41.1308C96.3822 40.5207 95.9791 39.7976 95.7029 38.9644C95.4268 38.1316 95.2939 37.2094 95.2939 36.1989C95.2939 34.9313 95.4975 33.6641 95.9088 32.4005C96.3182 31.1341 96.9256 29.9962 97.7294 28.9849C98.5271 27.972 99.5111 27.1439 100.67 26.4982C101.827 25.8568 103.158 25.5342 104.654 25.5342C105.751 25.5342 106.716 25.7049 107.551 26.042C108.382 26.3783 109.066 26.8553 109.607 27.4654C110.143 28.0787 110.549 28.7986 110.823 29.6329C111.098 30.4642 111.234 31.3888 111.234 32.4001C111.234 33.6637 111.033 34.9309 110.635 36.1985C110.236 37.4598 109.644 38.6004 108.863 39.614C108.083 40.6254 107.108 41.4531 105.937 42.096C104.768 42.739 103.411 43.0616 101.872 43.0616ZM104.212 29.522C103.518 29.522 102.904 29.7236 102.379 30.1216C101.851 30.5243 101.408 31.0306 101.051 31.6411C100.69 32.2544 100.423 32.9231 100.242 33.6501C100.063 34.3786 99.9747 35.0672 99.9747 35.7215C99.9747 36.7774 100.145 37.5996 100.48 38.1914C100.819 38.7801 101.429 39.0762 102.315 39.0762C103.012 39.0762 103.622 38.8762 104.151 38.4738C104.675 38.0742 105.118 37.5676 105.478 36.9559C105.837 36.3457 106.107 35.675 106.288 34.9469C106.464 34.2208 106.555 33.5282 106.555 32.8751C106.555 31.822 106.385 30.9978 106.047 30.4068C105.71 29.8181 105.097 29.522 104.212 29.522Z" fill="#4D4D4D"/>
<path d="M116.336 42.6205H111.65L115.604 25.9813H120.321L116.336 42.6205ZM118.611 23.954C117.958 23.954 117.366 23.7595 116.841 23.3696C116.314 22.9822 116.049 22.3857 116.049 21.5818C116.049 21.1396 116.14 20.7248 116.318 20.3334C116.497 19.9427 116.735 19.6064 117.031 19.3205C117.325 19.0369 117.671 18.8103 118.059 18.6396C118.448 18.4717 118.864 18.3877 119.306 18.3877C119.961 18.3877 120.552 18.5822 121.079 18.9721C121.606 19.3639 121.872 19.9603 121.872 20.7599C121.872 21.2037 121.777 21.6201 121.601 22.0107C121.424 22.4013 121.186 22.7376 120.891 23.0236C120.594 23.3075 120.252 23.5333 119.863 23.7025C119.471 23.8732 119.056 23.954 118.611 23.954Z" fill="#4D4D4D"/>
<path d="M123.695 26.7379C124.051 26.634 124.448 26.509 124.879 26.373C125.312 26.2371 125.796 26.1105 126.337 25.9965C126.872 25.8789 127.475 25.7836 128.139 25.7098C128.803 25.6344 129.559 25.5977 130.399 25.5977C132.869 25.5977 134.571 26.3168 135.511 27.7508C136.45 29.1847 136.612 31.1472 136.003 33.6346L133.849 42.6189H129.136L131.223 33.8237C131.351 33.2745 131.451 32.7436 131.524 32.2249C131.599 31.7108 131.595 31.2577 131.508 30.8656C131.424 30.4781 131.228 30.1609 130.924 29.9152C130.615 29.6734 130.148 29.5519 129.515 29.5519C128.905 29.5519 128.283 29.6175 127.649 29.7441L124.58 42.6185H119.865L123.695 26.7379Z" fill="#4D4D4D"/>
</g>
<defs>
<clipPath id="clip0_703_780">
<rect width="119.725" height="25" fill="white" transform="translate(16.6372 18.064)"/>
</clipPath>
</defs>
</svg>
