<svg width="126" height="61" viewBox="0 0 126 61" fill="none" xmlns="http://www.w3.org/2000/svg">
<rect y="0.563965" width="125.939" height="60" rx="10" fill="#F8F8F8"/>
<g clip-path="url(#clip0_703_793)">
<path d="M51.0085 23.1768H45.8274C45.4728 23.1768 45.1713 23.4343 45.116 23.7843L43.0206 37.0699C42.9789 37.3321 43.1819 37.5684 43.4478 37.5684H45.9213C46.2759 37.5684 46.5774 37.3109 46.6327 36.9601L47.1978 33.3768C47.2524 33.026 47.5547 32.7684 47.9085 32.7684H49.5486C52.9615 32.7684 54.9312 31.1169 55.4456 27.8442C55.6774 26.4124 55.4554 25.2874 54.785 24.4995C54.0486 23.6343 52.7425 23.1768 51.0085 23.1768ZM51.6062 28.029C51.3228 29.8881 49.9024 29.8881 48.5289 29.8881H47.7471L48.2956 26.4162C48.3282 26.2063 48.51 26.0518 48.7221 26.0518H49.0804C50.016 26.0518 50.8986 26.0518 51.3547 26.5851C51.6266 26.9033 51.71 27.376 51.6062 28.029Z" fill="#253B80"/>
<path d="M66.4956 27.9692H64.0145C63.8031 27.9692 63.6206 28.1237 63.588 28.3336L63.4781 29.0275L63.3047 28.776C62.7675 27.9964 61.5698 27.7358 60.3744 27.7358C57.6327 27.7358 55.291 29.8124 54.835 32.7252C54.5978 34.1783 54.935 35.5677 55.7592 36.5366C56.5153 37.4275 57.5971 37.7987 58.8842 37.7987C61.0933 37.7987 62.3183 36.3783 62.3183 36.3783L62.2077 37.0677C62.166 37.3313 62.3691 37.5677 62.6334 37.5677H64.8683C65.2236 37.5677 65.5236 37.3101 65.5797 36.9593L66.9206 28.4677C66.963 28.2063 66.7607 27.9692 66.4956 27.9692ZM63.0372 32.798C62.7978 34.2154 61.6728 35.1669 60.238 35.1669C59.5175 35.1669 58.9418 34.9358 58.5721 34.498C58.2054 34.0631 58.066 33.4442 58.1827 32.7548C58.4062 31.3495 59.5501 30.3669 60.963 30.3669C61.6675 30.3669 62.2403 30.601 62.6175 31.0427C62.9956 31.4889 63.1456 32.1116 63.0372 32.798Z" fill="#253B80"/>
<path d="M79.709 27.9692H77.2158C76.9779 27.9692 76.7544 28.0874 76.6196 28.2851L73.1809 33.3503L71.7234 28.4829C71.6317 28.1783 71.3506 27.9692 71.0325 27.9692H68.5825C68.2847 27.9692 68.0779 28.2601 68.1726 28.5405L70.9188 36.5995L68.337 40.2442C68.134 40.5314 68.3385 40.9261 68.6893 40.9261H71.1794C71.4158 40.9261 71.637 40.8109 71.7711 40.617L80.0635 28.6473C80.262 28.3609 80.0582 27.9692 79.709 27.9692Z" fill="#253B80"/>
<path d="M87.9635 23.1768H82.7817C82.4279 23.1768 82.1264 23.4343 82.0711 23.7843L79.9757 37.0699C79.934 37.3321 80.137 37.5684 80.4014 37.5684H83.0605C83.3075 37.5684 83.5188 37.3881 83.5575 37.1427L84.1522 33.3768C84.2067 33.026 84.509 32.7684 84.8628 32.7684H86.5022C89.9158 32.7684 91.8847 31.1169 92.3999 27.8442C92.6325 26.4124 92.409 25.2874 91.7385 24.4995C91.0029 23.6343 89.6976 23.1768 87.9635 23.1768ZM88.5613 28.029C88.2787 29.8881 86.8582 29.8881 85.484 29.8881H84.7029L85.2522 26.4162C85.2847 26.2063 85.465 26.0518 85.6779 26.0518H86.0363C86.9711 26.0518 87.8544 26.0518 88.3105 26.5851C88.5825 26.9033 88.665 27.376 88.5613 28.029Z" fill="#179BD7"/>
<path d="M103.45 27.9692H100.97C100.757 27.9692 100.576 28.1237 100.545 28.3336L100.435 29.0275L100.26 28.776C99.7233 27.9964 98.5264 27.7358 97.3309 27.7358C94.5892 27.7358 92.2483 29.8124 91.7923 32.7252C91.5559 34.1783 91.8915 35.5677 92.7158 36.5366C93.4733 37.4275 94.5536 37.7987 95.8408 37.7987C98.0498 37.7987 99.2748 36.3783 99.2748 36.3783L99.1642 37.0677C99.1226 37.3313 99.3256 37.5677 99.5915 37.5677H101.826C102.179 37.5677 102.481 37.3101 102.536 36.9593L103.878 28.4677C103.919 28.2063 103.716 27.9692 103.45 27.9692ZM99.9915 32.798C99.7536 34.2154 98.6271 35.1669 97.1923 35.1669C96.4733 35.1669 95.8961 34.9358 95.5264 34.498C95.1597 34.0631 95.0218 33.4442 95.137 32.7548C95.362 31.3495 96.5044 30.3669 97.9173 30.3669C98.6218 30.3669 99.1945 30.601 99.5718 31.0427C99.9514 31.4889 100.101 32.1116 99.9915 32.798Z" fill="#179BD7"/>
<path d="M106.375 23.5414L104.249 37.0702C104.207 37.3323 104.41 37.5687 104.674 37.5687H106.812C107.168 37.5687 107.469 37.3111 107.524 36.9604L109.621 23.6755C109.662 23.4134 109.459 23.1763 109.195 23.1763H106.801C106.59 23.177 106.408 23.3316 106.375 23.5414Z" fill="#179BD7"/>
<path d="M21.5045 40.1504L21.9007 37.6338L21.0181 37.6133H16.8037L19.7325 19.0429C19.7416 18.9868 19.7711 18.9345 19.8143 18.8974C19.8575 18.8603 19.9128 18.8398 19.9704 18.8398H27.0764C29.4355 18.8398 31.0636 19.3308 31.9136 20.2997C32.312 20.7542 32.5658 21.2292 32.6886 21.752C32.8173 22.3004 32.8196 22.9558 32.6939 23.755L32.6848 23.8133V24.3254L33.0833 24.5512C33.4189 24.7292 33.6855 24.933 33.8901 25.1664C34.231 25.555 34.4514 26.0489 34.5446 26.6345C34.6408 27.2368 34.609 27.9535 34.4514 28.7648C34.2696 29.6982 33.9757 30.5111 33.5787 31.1762C33.2136 31.7891 32.7484 32.2974 32.1961 32.6914C31.6689 33.0656 31.0423 33.3497 30.334 33.5315C29.6476 33.7103 28.8651 33.8004 28.0067 33.8004H27.4537C27.0583 33.8004 26.6742 33.9429 26.3726 34.1982C26.0704 34.4588 25.8704 34.8148 25.809 35.2042L25.7673 35.4308L25.0673 39.8664L25.0355 40.0292C25.0272 40.0808 25.0128 40.1065 24.9916 40.1239C24.9726 40.1398 24.9454 40.1504 24.9189 40.1504H21.5045Z" fill="#253B80"/>
<path d="M33.4605 23.8721C33.4392 24.0077 33.415 24.1463 33.3877 24.2887C32.4506 29.1001 29.2446 30.7622 25.1499 30.7622H23.065C22.5643 30.7622 22.1423 31.1259 22.0643 31.6198L20.9968 38.3895L20.6946 40.3084C20.6438 40.6327 20.8938 40.9251 21.2211 40.9251H24.9188C25.3567 40.9251 25.7286 40.6069 25.7976 40.1751L25.8339 39.9872L26.5302 35.569L26.5749 35.3266C26.643 34.8933 27.0158 34.5751 27.4536 34.5751H28.0067C31.5892 34.5751 34.3938 33.1206 35.2135 28.9115C35.5559 27.1531 35.3786 25.6849 34.4726 24.6524C34.1983 24.341 33.8582 24.0827 33.4605 23.8721Z" fill="#179BD7"/>
<path d="M32.4804 23.4814C32.3372 23.4397 32.1895 23.4018 32.0379 23.3677C31.8857 23.3344 31.7296 23.3049 31.569 23.2791C31.0069 23.1882 30.391 23.145 29.7311 23.145H24.1614C24.0243 23.145 23.894 23.1761 23.7773 23.2321C23.5205 23.3556 23.3296 23.5988 23.2834 23.8965L22.0985 31.4011L22.0645 31.62C22.1425 31.1261 22.5645 30.7624 23.0652 30.7624H25.1501C29.2448 30.7624 32.4508 29.0996 33.3879 24.289C33.416 24.1465 33.4395 24.0079 33.4607 23.8723C33.2235 23.7465 32.9667 23.639 32.6902 23.5473C32.622 23.5246 32.5516 23.5026 32.4804 23.4814Z" fill="#222D65"/>
<path d="M23.2833 23.8965C23.3295 23.5988 23.5204 23.3556 23.7773 23.2329C23.8947 23.1768 24.0242 23.1458 24.1614 23.1458H29.7311C30.3909 23.1458 31.0068 23.189 31.5689 23.2799C31.7295 23.3056 31.8856 23.3352 32.0379 23.3685C32.1894 23.4026 32.3371 23.4405 32.4803 23.4821C32.5515 23.5034 32.622 23.5253 32.6909 23.5473C32.9674 23.639 33.2242 23.7473 33.4614 23.8723C33.7401 22.0943 33.4591 20.8837 32.4977 19.7875C31.4379 18.5806 29.525 18.064 27.0773 18.064H19.9712C19.4712 18.064 19.0447 18.4276 18.9674 18.9223L16.0076 37.6837C15.9492 38.0549 16.2356 38.3897 16.6098 38.3897H20.997L22.0985 31.4011L23.2833 23.8965Z" fill="#253B80"/>
</g>
<defs>
<clipPath id="clip0_703_793">
<rect width="93.9394" height="25" fill="white" transform="translate(16 18.064)"/>
</clipPath>
</defs>
</svg>
