<svg width="96" height="61" viewBox="0 0 96 61" fill="none" xmlns="http://www.w3.org/2000/svg">
<rect x="0.163086" y="0.563965" width="94.9541" height="60" rx="10" fill="#F8F8F8"/>
<g clip-path="url(#clip0_703_814)">
<path d="M45.9386 30.2774V37.6057H43.6138V19.5081H49.7797C50.5156 19.4927 51.2474 19.6232 51.9327 19.8921C52.618 20.161 53.2432 20.563 53.7723 21.0748C54.3068 21.5555 54.7321 22.1451 55.0198 22.8039C55.3075 23.4627 55.4508 24.1754 55.4401 24.8942C55.4554 25.6168 55.3143 26.3342 55.0264 26.9972C54.7386 27.6601 54.3108 28.253 53.7723 28.7352C52.6941 29.7634 51.3632 30.2769 49.7797 30.276H45.9386V30.2774ZM45.9386 21.7361V28.0537H49.8374C50.2648 28.0663 50.6902 27.9896 51.0863 27.8285C51.4824 27.6674 51.8405 27.4254 52.1377 27.1179C52.4334 26.8305 52.6684 26.4867 52.8289 26.1068C52.9893 25.727 53.072 25.3188 53.072 24.9065C53.072 24.4941 52.9893 24.0859 52.8289 23.7061C52.6684 23.3262 52.4334 22.9824 52.1377 22.695C51.8442 22.381 51.4874 22.1331 51.0908 21.9675C50.6942 21.802 50.267 21.7226 49.8374 21.7347H45.9386V21.7361Z" fill="#5F6368"/>
<path d="M60.7971 24.8188C62.5155 24.8188 63.8719 25.278 64.8663 26.1964C65.8607 27.1148 66.3575 28.374 66.3565 29.9739V37.6055H64.1327V35.8871H64.0317C63.069 37.3022 61.7886 38.0098 60.1906 38.0098C58.8265 38.0098 57.6853 37.6055 56.7669 36.7968C56.3261 36.4257 55.9738 35.9609 55.7355 35.4363C55.4971 34.9117 55.3789 34.3405 55.3893 33.7644C55.3893 32.4831 55.8735 31.4641 56.842 30.7075C57.8104 29.9508 59.1033 29.5715 60.7206 29.5696C62.101 29.5696 63.2379 29.8223 64.1313 30.3277V29.7963C64.1339 29.4036 64.0491 29.0152 63.883 28.6593C63.7169 28.3034 63.4737 27.9889 63.171 27.7386C62.5562 27.1839 61.755 26.8813 60.9271 26.891C59.6284 26.891 58.6008 27.4387 57.8441 28.5343L55.7965 27.2448C56.9228 25.6275 58.5897 24.8188 60.7971 24.8188ZM57.7892 33.815C57.7877 34.1109 57.8568 34.4028 57.991 34.6666C58.1251 34.9303 58.3203 35.1582 58.5603 35.3312C59.0745 35.7356 59.7127 35.9499 60.3668 35.9377C61.3478 35.936 62.2882 35.5455 62.9819 34.8518C63.752 34.1269 64.1371 33.2764 64.1371 32.3002C63.4122 31.7226 62.4014 31.4338 61.1047 31.4338C60.1603 31.4338 59.3728 31.6615 58.7423 32.1168C58.1055 32.5789 57.7892 33.1406 57.7892 33.815Z" fill="#5F6368"/>
<path d="M79.1215 25.2231L71.3586 43.0638H68.9586L71.8394 36.8214L66.7349 25.2231H69.2619L72.9513 34.1182H73.0018L76.5902 25.2231H79.1215Z" fill="#5F6368"/>
<path d="M36.5439 28.6975C36.5448 27.989 36.4849 27.2818 36.3648 26.5835H26.5601V30.5877H32.1758C32.0609 31.2272 31.8176 31.8369 31.4608 32.3799C31.1039 32.9229 30.6408 33.388 30.0993 33.7472V36.3464H33.4508C35.4132 34.5371 36.5439 31.8613 36.5439 28.6975Z" fill="#4285F4"/>
<path d="M26.5598 38.8577C29.3655 38.8577 31.7279 37.9364 33.4505 36.348L30.099 33.7488C29.1662 34.3813 27.9648 34.7423 26.5598 34.7423C23.8479 34.7423 21.5462 32.9142 20.7231 30.4507H17.2705V33.1293C18.1359 34.8512 19.4628 36.2988 21.1031 37.3103C22.7434 38.3219 24.6326 38.8576 26.5598 38.8577Z" fill="#34A853"/>
<path d="M20.7233 30.4508C20.2881 29.1599 20.2881 27.762 20.7233 26.4711V23.7925H17.2706C16.5427 25.241 16.1636 26.8398 16.1636 28.4609C16.1636 30.0821 16.5427 31.6808 17.2706 33.1294L20.7233 30.4508Z" fill="#FBBC04"/>
<path d="M26.5598 22.1796C28.0425 22.1553 29.4751 22.7155 30.5481 23.7391L33.5155 20.7717C31.6339 19.0043 29.1411 18.034 26.5598 18.0642C24.6326 18.0642 22.7434 18.6 21.1031 19.6115C19.4628 20.623 18.1359 22.0706 17.2705 23.7925L20.7231 26.4711C21.5462 24.0077 23.8479 22.1796 26.5598 22.1796Z" fill="#EA4335"/>
</g>
<defs>
<clipPath id="clip0_703_814">
<rect width="62.9541" height="25" fill="white" transform="translate(16.1631 18.064)"/>
</clipPath>
</defs>
</svg>
