<svg width="95" height="61" viewBox="0 0 95 61" fill="none" xmlns="http://www.w3.org/2000/svg">
<rect x="0.564453" y="0.563965" width="93.5984" height="60" rx="10" fill="#F8F8F8"/>
<g clip-path="url(#clip0_703_811)">
<path d="M56.6764 20.5947C52.3071 20.5947 48.4024 22.8594 48.4024 27.0437C48.4024 31.8422 55.3275 32.1737 55.3275 34.5843C55.3275 35.5993 54.1643 36.5079 52.1775 36.5079C49.358 36.5079 47.2506 35.2383 47.2506 35.2383L46.3489 39.4607C46.3489 39.4607 48.7766 40.5331 51.9996 40.5331C56.7767 40.5331 60.5357 38.1572 60.5357 33.9014C60.5357 28.8309 53.5818 28.5093 53.5818 26.2718C53.5818 25.4767 54.5367 24.6055 56.5177 24.6055C58.7529 24.6055 60.5766 25.5288 60.5766 25.5288L61.459 21.4507C61.459 21.4507 59.4748 20.5947 56.6764 20.5947ZM16.701 20.9025L16.5952 21.5181C16.5952 21.5181 18.4334 21.8545 20.089 22.5256C22.2207 23.2951 22.3726 23.7431 22.7316 25.1345L26.6438 40.2157H31.8881L39.9673 20.9025H34.735L29.5436 34.0337L27.4252 22.9031C27.231 21.6292 26.2469 20.9025 25.0423 20.9025H16.701ZM42.0713 20.9025L37.9667 40.2157H42.9561L47.0463 20.9025H42.0713ZM69.899 20.9025C68.6958 20.9025 68.0584 21.5466 67.5906 22.6722L60.2808 40.2157H65.5131L66.5254 37.2918H72.8998L73.5154 40.2157H78.1321L74.1045 20.9025H69.899ZM70.5794 26.1203L72.1304 33.3676H67.9753L70.5794 26.1203Z" fill="#1434CB"/>
</g>
<defs>
<clipPath id="clip0_703_811">
<rect width="61.5984" height="20" fill="white" transform="translate(16.5645 20.564)"/>
</clipPath>
</defs>
</svg>
